<svg xmlns="http://www.w3.org/2000/svg" width="512" height="512" viewBox="0 0 512 512">
<rect width="512" height="512" fill="#1B2631"/>
<circle cx="256" cy="256" r="224" fill="none" stroke="#E67E22" stroke-width="15"/>
<circle cx="256" cy="256" r="154" fill="#E67E22"/>
<line x1="256" y1="42" x2="256" y2="182" stroke="#27AE60" stroke-width="8" stroke-linecap="round"/>
<line x1="232" y1="42" x2="280" y2="42" stroke="#27AE60" stroke-width="7" stroke-linecap="round"/>
<path d="M256,58 C288,66 288,84 256,92 C224,100 224,118 256,126 C288,134 288,152 256,160 C234,166 230,174 256,182" fill="none" stroke="#5DADE2" stroke-width="7.5" stroke-linecap="round"/>
<ellipse cx="280" cy="56" rx="11" ry="8" fill="#5DADE2"/>
<circle cx="283" cy="52" r="3" fill="#1B2631"/>
<line x1="291" y1="56" x2="304" y2="48" stroke="#E74C3C" stroke-width="3" stroke-linecap="round"/>
<line x1="291" y1="56" x2="304" y2="64" stroke="#E74C3C" stroke-width="3" stroke-linecap="round"/>
<text x="256" y="308" text-anchor="middle" fill="#fff" font-size="96" font-weight="700" font-family="sans-serif">ARA</text>
</svg>
