<svg xmlns="http://www.w3.org/2000/svg" width="192" height="192" viewBox="0 0 192 192">
<rect width="192" height="192" fill="#1B2631"/>
<circle cx="96" cy="96" r="84" fill="none" stroke="#E67E22" stroke-width="6"/>
<circle cx="96" cy="96" r="58" fill="#E67E22"/>
<line x1="96" y1="16" x2="96" y2="68" stroke="#27AE60" stroke-width="3" stroke-linecap="round"/>
<line x1="87" y1="16" x2="105" y2="16" stroke="#27AE60" stroke-width="2.5" stroke-linecap="round"/>
<path d="M96,22 C108,25 108,32 96,35 C84,38 84,45 96,48 C108,51 108,58 96,61 C88,63 86,66 96,68" fill="none" stroke="#5DADE2" stroke-width="2.8" stroke-linecap="round"/>
<ellipse cx="105" cy="21" rx="4" ry="3" fill="#5DADE2"/>
<circle cx="106" cy="19.5" r="1" fill="#1B2631"/>
<line x1="109" y1="21" x2="114" y2="18" stroke="#E74C3C" stroke-width="1.2" stroke-linecap="round"/>
<line x1="109" y1="21" x2="114" y2="24" stroke="#E74C3C" stroke-width="1.2" stroke-linecap="round"/>
<text x="96" y="116" text-anchor="middle" fill="#fff" font-size="36" font-weight="700" font-family="sans-serif">ARA</text>
</svg>
